<svg width="18" height="18" viewBox="0 0 18 18" fill="none" xmlns="http://www.w3.org/2000/svg">
<path d="M10.5378 16.2027C10.3815 16.4452 10.1572 16.6465 9.88731 16.7864C9.61743 16.9263 9.31145 17 9 17C8.68855 17 8.38257 16.9263 8.11269 16.7864C7.84281 16.6465 7.6185 16.4452 7.46222 16.2027M14.3333 5.80085C14.3333 4.52759 13.7714 3.30647 12.7712 2.40614C11.771 1.5058 10.4145 1 9 1C7.58551 1 6.22896 1.5058 5.22876 2.40614C4.22857 3.30647 3.66667 4.52759 3.66667 5.80085C3.66667 11.4018 1 13.0021 1 13.0021H17C17 13.0021 14.3333 11.4018 14.3333 5.80085Z" stroke="#1E1E1E" stroke-width="2" stroke-linecap="round" stroke-linejoin="round"/>
</svg>
