<svg width="13" height="15" viewBox="0 0 13 15" fill="none" xmlns="http://www.w3.org/2000/svg">
<path d="M9 2.33333H10.3333C10.687 2.33333 11.0261 2.47381 11.2761 2.72386C11.5262 2.97391 11.6667 3.31304 11.6667 3.66667V13C11.6667 13.3536 11.5262 13.6928 11.2761 13.9428C11.0261 14.1929 10.687 14.3333 10.3333 14.3333H2.33333C1.97971 14.3333 1.64057 14.1929 1.39052 13.9428C1.14048 13.6928 1 13.3536 1 13V3.66667C1 3.31304 1.14048 2.97391 1.39052 2.72386C1.64057 2.47381 1.97971 2.33333 2.33333 2.33333H3.66667M4.33333 1H8.33333C8.70152 1 9 1.29848 9 1.66667V3C9 3.36819 8.70152 3.66667 8.33333 3.66667H4.33333C3.96514 3.66667 3.66667 3.36819 3.66667 3V1.66667C3.66667 1.29848 3.96514 1 4.33333 1Z" stroke="#FF0000" stroke-linecap="round" stroke-linejoin="round"/>
</svg>
