<svg width="16" height="12" viewBox="0 0 16 12" fill="none" xmlns="http://www.w3.org/2000/svg">
<path d="M14.3333 0.332627H12.6667C12.4908 0.335132 12.3231 0.407017 12.2 0.532627L11.3333 1.39929L10.4667 0.532627C10.3436 0.407017 10.1759 0.335132 10 0.332627H1.66667C1.5341 0.327971 1.40198 0.350652 1.27855 0.399259C1.15512 0.447866 1.04301 0.521358 0.949207 0.615161C0.855404 0.708965 0.781911 0.821071 0.733304 0.944503C0.684697 1.06794 0.662016 1.20005 0.666672 1.33263V10.666C0.662016 10.7985 0.684697 10.9307 0.733304 11.0541C0.781911 11.1775 0.855404 11.2896 0.949207 11.3834C1.04301 11.4772 1.15512 11.5507 1.27855 11.5993C1.40198 11.6479 1.5341 11.6706 1.66667 11.666H10C10.1759 11.6635 10.3436 11.5916 10.4667 11.466L11.3333 10.5993L12.2 11.466C12.3231 11.5916 12.4908 11.6635 12.6667 11.666H14.3333C14.4659 11.6706 14.598 11.6479 14.7215 11.5993C14.8449 11.5507 14.957 11.4772 15.0508 11.3834C15.1446 11.2896 15.2181 11.1775 15.2667 11.0541C15.3153 10.9307 15.338 10.7985 15.3333 10.666V1.33263C15.338 1.20005 15.3153 1.06794 15.2667 0.944503C15.2181 0.821071 15.1446 0.708965 15.0508 0.615161C14.957 0.521358 14.8449 0.447866 14.7215 0.399259C14.598 0.350652 14.4659 0.327971 14.3333 0.332627ZM14 10.3326H12.9333L11.8 9.19929C11.7407 9.13463 11.6686 9.083 11.5882 9.04769C11.5079 9.01237 11.4211 8.99413 11.3333 8.99413C11.2456 8.99413 11.1588 9.01237 11.0785 9.04769C10.9981 9.083 10.926 9.13463 10.8667 9.19929L9.73334 10.3326H2.00001V1.66596H9.73334L10.8667 2.79929C10.926 2.86395 10.9981 2.91558 11.0785 2.9509C11.1588 2.98622 11.2456 3.00445 11.3333 3.00445C11.4211 3.00445 11.5079 2.98622 11.5882 2.9509C11.6686 2.91558 11.7407 2.86395 11.8 2.79929L12.9333 1.66596H14V10.3326Z" fill="#A567C6"/>
<path d="M11.3333 3.66602C11.1565 3.66602 10.987 3.73625 10.8619 3.86128C10.7369 3.9863 10.6667 4.15587 10.6667 4.33268V4.99935C10.6667 5.17616 10.7369 5.34573 10.8619 5.47075C10.987 5.59578 11.1565 5.66602 11.3333 5.66602C11.5101 5.66602 11.6797 5.59578 11.8047 5.47075C11.9298 5.34573 12 5.17616 12 4.99935V4.33268C12 4.15587 11.9298 3.9863 11.8047 3.86128C11.6797 3.73625 11.5101 3.66602 11.3333 3.66602Z" fill="#A567C6"/>
<path d="M11.3333 6.33203C11.1565 6.33203 10.987 6.40227 10.8619 6.52729C10.7369 6.65232 10.6667 6.82189 10.6667 6.9987V7.66536C10.6667 7.84218 10.7369 8.01174 10.8619 8.13677C10.987 8.26179 11.1565 8.33203 11.3333 8.33203C11.5101 8.33203 11.6797 8.26179 11.8047 8.13677C11.9298 8.01174 12 7.84218 12 7.66536V6.9987C12 6.82189 11.9298 6.65232 11.8047 6.52729C11.6797 6.40227 11.5101 6.33203 11.3333 6.33203Z" fill="#A567C6"/>
<path d="M4.66667 5.33333C5.03486 5.33333 5.33333 5.03486 5.33333 4.66667C5.33333 4.29848 5.03486 4 4.66667 4C4.29848 4 4 4.29848 4 4.66667C4 5.03486 4.29848 5.33333 4.66667 5.33333Z" fill="#A567C6"/>
<path d="M7.33334 7.99935C7.70153 7.99935 8.00001 7.70087 8.00001 7.33268C8.00001 6.96449 7.70153 6.66602 7.33334 6.66602C6.96515 6.66602 6.66667 6.96449 6.66667 7.33268C6.66667 7.70087 6.96515 7.99935 7.33334 7.99935Z" fill="#A567C6"/>
<path d="M7.20001 3.86576L3.86667 7.19909C3.80201 7.25842 3.75039 7.33054 3.71507 7.41087C3.67975 7.4912 3.66151 7.578 3.66151 7.66576C3.66151 7.75351 3.67975 7.84031 3.71507 7.92064C3.75039 8.00098 3.80201 8.07309 3.86667 8.13242C3.926 8.19708 3.99812 8.24871 4.07845 8.28403C4.15879 8.31934 4.24559 8.33758 4.33334 8.33758C4.42109 8.33758 4.50789 8.31934 4.58823 8.28403C4.66856 8.24871 4.74068 8.19708 4.80001 8.13242L8.13334 4.79909C8.22963 4.67071 8.27637 4.5119 8.265 4.35183C8.25362 4.19176 8.18489 4.04116 8.07141 3.92768C7.95794 3.81421 7.80734 3.74548 7.64727 3.7341C7.48719 3.72272 7.32839 3.76947 7.20001 3.86576Z" fill="#A567C6"/>
</svg>
