<svg width="17" height="14" viewBox="0 0 17 14" fill="none" xmlns="http://www.w3.org/2000/svg">
<path d="M11 9.66667V1H1V9.66667H11ZM11 9.66667H15.6667V6.33333L13.6667 4.33333H11V9.66667ZM5.66667 11.3333C5.66667 12.2538 4.92047 13 4 13C3.07953 13 2.33333 12.2538 2.33333 11.3333C2.33333 10.4129 3.07953 9.66667 4 9.66667C4.92047 9.66667 5.66667 10.4129 5.66667 11.3333ZM14.3333 11.3333C14.3333 12.2538 13.5871 13 12.6667 13C11.7462 13 11 12.2538 11 11.3333C11 10.4129 11.7462 9.66667 12.6667 9.66667C13.5871 9.66667 14.3333 10.4129 14.3333 11.3333Z" stroke="#3A52EE" stroke-linecap="round" stroke-linejoin="round"/>
</svg>
