<svg width="16" height="18" viewBox="0 0 16 18" fill="none" xmlns="http://www.w3.org/2000/svg">
<path d="M11.75 6.83293L4.25 2.50793M0.725 4.79959L8 9.00793L15.275 4.79959M8 17.3996V8.99959M15.5 12.3329V5.66626C15.4997 5.37399 15.4225 5.08693 15.2763 4.8339C15.13 4.58086 14.9198 4.37073 14.6667 4.22459L8.83333 0.89126C8.57997 0.744979 8.29256 0.667969 8 0.667969C7.70744 0.667969 7.42003 0.744979 7.16667 0.89126L1.33333 4.22459C1.08022 4.37073 0.869983 4.58086 0.723718 4.8339C0.577452 5.08693 0.5003 5.37399 0.5 5.66626V12.3329C0.5003 12.6252 0.577452 12.9123 0.723718 13.1653C0.869983 13.4183 1.08022 13.6285 1.33333 13.7746L7.16667 17.1079C7.42003 17.2542 7.70744 17.3312 8 17.3312C8.29256 17.3312 8.57997 17.2542 8.83333 17.1079L14.6667 13.7746C14.9198 13.6285 15.13 13.4183 15.2763 13.1653C15.4225 12.9123 15.4997 12.6252 15.5 12.3329Z" stroke="white" stroke-linecap="round" stroke-linejoin="round"/>
</svg>
