<svg width="11" height="12" viewBox="0 0 11 12" fill="none" xmlns="http://www.w3.org/2000/svg">
<path d="M1 3L2.5 1H8.5L10 3M1 3V10C1 10.2652 1.10536 10.5196 1.29289 10.7071C1.48043 10.8946 1.73478 11 2 11H9C9.26522 11 9.51957 10.8946 9.70711 10.7071C9.89464 10.5196 10 10.2652 10 10V3M1 3H10M7.5 5C7.5 5.53043 7.28929 6.03914 6.91421 6.41421C6.53914 6.78929 6.03043 7 5.5 7C4.96957 7 4.46086 6.78929 4.08579 6.41421C3.71071 6.03914 3.5 5.53043 3.5 5" stroke="#5E2A96" stroke-linecap="round" stroke-linejoin="round"/>
</svg>
