<svg width="10" height="14" viewBox="0 0 10 14" fill="none" xmlns="http://www.w3.org/2000/svg">
<path d="M5.7063 0.292854C5.31584 -0.0976181 4.68173 -0.0976181 4.29127 0.292854L0.292933 4.29129C0.00555328 4.57868 -0.0787866 5.00664 0.0773983 5.38149C0.233583 5.75634 0.595932 6 1.00201 6H8.99868C9.40164 6 9.76711 5.75634 9.92329 5.38149C10.0795 5.00664 9.99201 4.57868 9.70776 4.29129L5.70942 0.292854H5.7063Z" fill="#A567C6"/>
<path d="M4.2937 13.7071C4.68416 14.0976 5.31827 14.0976 5.70873 13.7071L9.70707 9.70871C9.99445 9.42132 10.0788 8.99336 9.9226 8.61851C9.76642 8.24365 9.40407 8 8.99799 8L1.00132 8.00312C0.598365 8.00312 0.232893 8.24678 0.0767077 8.62163C-0.0794772 8.99649 0.00798634 9.42444 0.292243 9.71183L4.29058 13.7103L4.2937 13.7071Z" fill="#5E2A96"/>
</svg>
